<svg xmlns="http://www.w3.org/2000/svg" width="26.464" height="26.666" viewBox="0 0 26.464 26.666">
  <path id="Path_204" data-name="Path 204" d="M116.3,131.792a6.846,6.846,0,1,0,6.794,6.846A6.821,6.821,0,0,0,116.3,131.792Zm0,11.31a4.441,4.441,0,0,1-4.43-4.464,4.4,4.4,0,1,1,4.43,4.464Zm8.625-11.548a1.6,1.6,0,1,0-1.595,1.607A1.594,1.594,0,0,0,124.922,131.554Zm4.489,1.607a8.059,8.059,0,0,0-2.126-5.595,7.933,7.933,0,0,0-5.553-2.143c-2.186-.119-8.743-.119-10.928,0a7.326,7.326,0,0,0-7.68,7.738c-.118,2.2-.118,8.81,0,11.012a8.167,8.167,0,0,0,2.127,5.6,8.035,8.035,0,0,0,5.553,2.142c2.185.119,8.742.119,10.928,0a7.932,7.932,0,0,0,5.553-2.142,8.166,8.166,0,0,0,2.126-5.6C129.529,141.971,129.529,135.364,129.411,133.161Zm-2.835,13.334a4.4,4.4,0,0,1-2.481,2.559c-1.772.715-5.907.536-7.8.536-1.949,0-6.084.179-7.8-.536a4.492,4.492,0,0,1-2.54-2.559c-.709-1.726-.532-5.893-.532-7.857,0-1.9-.177-6.072.532-7.858a4.572,4.572,0,0,1,2.54-2.5c1.713-.714,5.848-.535,7.8-.535,1.891,0,6.026-.179,7.8.535a4.472,4.472,0,0,1,2.481,2.5c.709,1.786.532,5.953.532,7.858C127.108,140.6,127.285,144.769,126.576,146.495Z" transform="translate(-103.036 -125.334)" fill="#9099a7"/>
</svg>
