<svg xmlns="http://www.w3.org/2000/svg" width="29.25" height="22.667" viewBox="0 0 29.25 22.667">
  <path id="Path_203" data-name="Path 203" d="M58.273,132.292a12.439,12.439,0,0,0,2.977-2.95,11.685,11.685,0,0,1-3.434.874,5.656,5.656,0,0,0,2.633-3.168,13.038,13.038,0,0,1-3.778,1.42,6.151,6.151,0,0,0-4.408-1.8,5.877,5.877,0,0,0-6.01,5.735,5.154,5.154,0,0,0,.172,1.311A17.73,17.73,0,0,1,34,127.7a5.383,5.383,0,0,0-.8,2.895,5.58,5.58,0,0,0,2.69,4.751,6.563,6.563,0,0,1-2.748-.71v.055a5.817,5.817,0,0,0,4.808,5.626,7.024,7.024,0,0,1-1.545.218,8.212,8.212,0,0,1-1.145-.109,5.952,5.952,0,0,0,5.61,3.987,12.458,12.458,0,0,1-7.441,2.458A11.8,11.8,0,0,1,32,146.766a17.34,17.34,0,0,0,9.216,2.567,20.96,20.96,0,0,0,2.768-.191,16.331,16.331,0,0,0,14.289-16.086Z" transform="translate(-32 -126.666)" fill="#9099a7"/>
</svg>
