<svg xmlns="http://www.w3.org/2000/svg" width="30.643" height="29.333" viewBox="0 0 30.643 29.333">
  <path id="Path_206" data-name="Path 206" d="M275.75,138.756c0-8.152-6.858-14.756-15.322-14.756s-15.321,6.6-15.321,14.756a14.867,14.867,0,0,0,12.912,14.577V143.04h-3.892v-4.284h3.892v-3.213c0-3.689,2.286-5.772,5.746-5.772a23.36,23.36,0,0,1,3.459.3V133.7h-1.915c-1.915,0-2.533,1.131-2.533,2.321v2.737h4.263l-.68,4.284h-3.583v10.293A14.922,14.922,0,0,0,275.75,138.756Z" transform="translate(-245.107 -124)" fill="#9099a7"/>
</svg>
