<svg xmlns="http://www.w3.org/2000/svg" width="33.428" height="22.667" viewBox="0 0 33.428 22.667">
  <path id="Path_205" data-name="Path 205" d="M203.981,130.267a4.088,4.088,0,0,0-2.933-2.893c-2.628-.708-13.017-.708-13.017-.708s-10.451,0-13.078.708a4.088,4.088,0,0,0-2.934,2.893c-.733,2.479-.733,7.791-.733,7.791a39.03,39.03,0,0,0,.733,7.792,4.009,4.009,0,0,0,2.934,2.833c2.627.65,13.078.65,13.078.65s10.389,0,13.017-.65a4.009,4.009,0,0,0,2.933-2.833,39.03,39.03,0,0,0,.733-7.792S204.714,132.746,203.981,130.267ZM184.608,142.84v-9.563l8.678,4.781Z" transform="translate(-171.286 -126.666)" fill="#9099a7"/>
</svg>
