<svg xmlns="http://www.w3.org/2000/svg" width="27.857" height="26.667" viewBox="0 0 27.857 26.667">
  <path id="Path_207" data-name="Path 207" d="M342.01,125.334H318.07a1.959,1.959,0,0,0-1.927,1.964v22.8A1.909,1.909,0,0,0,318.07,152h23.94A1.963,1.963,0,0,0,344,150.1V127.3A2.014,2.014,0,0,0,342.01,125.334Zm-17.473,22.857h-4.1V135.513h4.1Zm-2.052-14.464a2.329,2.329,0,0,1-2.425-2.262,2.4,2.4,0,0,1,4.788,0A2.313,2.313,0,0,1,322.485,133.727Zm17.535,14.464h-4.166V142c0-1.429,0-3.334-2.114-3.334-2.176,0-2.487,1.607-2.487,3.274v6.25h-4.1V135.513h3.917v1.726h.062a4.424,4.424,0,0,1,3.918-2.084c4.166,0,4.974,2.679,4.974,6.072Z" transform="translate(-316.143 -125.334)" fill="#9099a7"/>
</svg>
